<mxfile host="app.diagrams.net" agent="Mozilla/5.0 (Windows NT 10.0; Win64; x64; rv:144.0) Gecko/20100101 Firefox/144.0" version="28.2.7">
  <diagram name="Page-1" id="2cc2dc42-3aac-f2a9-1cec-7a8b7cbee084">
    <mxGraphModel dx="1554" dy="850" grid="1" gridSize="10" guides="1" tooltips="1" connect="1" arrows="1" fold="1" page="1" pageScale="1" pageWidth="1100" pageHeight="850" background="none" math="0" shadow="0">
      <root>
        <mxCell id="0" />
        <mxCell id="1" parent="0" />
        <mxCell id="7026571954dc6520-1" value="" style="strokeWidth=1;shadow=0;dashed=0;align=center;html=1;shape=mxgraph.mockup.containers.browserWindow;rSize=0;strokeColor=#666666;mainText=,;recursiveResize=0;rounded=0;labelBackgroundColor=none;fontFamily=Verdana;fontSize=12" parent="1" vertex="1">
          <mxGeometry x="30" y="20" width="1050" height="820" as="geometry" />
        </mxCell>
        <mxCell id="7026571954dc6520-2" value="Match &lt;i&gt;[Lobby]&lt;/i&gt;" style="strokeWidth=1;shadow=0;dashed=0;align=center;html=1;shape=mxgraph.mockup.containers.anchor;fontSize=17;fontColor=#666666;align=left;" parent="7026571954dc6520-1" vertex="1">
          <mxGeometry x="60" y="12" width="110" height="26" as="geometry" />
        </mxCell>
        <mxCell id="7026571954dc6520-3" value="https://hexfields-studio.github.io/HexfieldsDominion/match/[match_id]" style="strokeWidth=1;shadow=0;dashed=0;align=center;html=1;shape=mxgraph.mockup.containers.anchor;rSize=0;fontSize=17;fontColor=#666666;align=left;" parent="7026571954dc6520-1" vertex="1">
          <mxGeometry x="130" y="60" width="250" height="26" as="geometry" />
        </mxCell>
        <mxCell id="fFjievGGbrHmdc-88DgR-3" value="" style="sketch=0;outlineConnect=0;fontColor=#232F3E;gradientColor=none;fillColor=#232F3D;strokeColor=none;dashed=0;verticalLabelPosition=bottom;verticalAlign=top;align=center;html=1;fontSize=12;fontStyle=0;aspect=fixed;pointerEvents=1;shape=mxgraph.aws4.gear;" parent="7026571954dc6520-1" vertex="1">
          <mxGeometry x="1000" y="130" width="28" height="28" as="geometry" />
        </mxCell>
        <mxCell id="0ezgG9I7OVWT-BrZ1D5e-15" value="" style="rounded=1;whiteSpace=wrap;html=1;fillColor=light-dark(#000000,#1A1A1A);shadow=0;glass=0;perimeterSpacing=0;strokeColor=light-dark(#000000, #6e6e6e);arcSize=8;" vertex="1" parent="7026571954dc6520-1">
          <mxGeometry x="205" y="220" width="630" height="480" as="geometry" />
        </mxCell>
        <mxCell id="0ezgG9I7OVWT-BrZ1D5e-16" value="&lt;font style=&quot;font-size: 26px;&quot;&gt;Lobby verwalten&lt;/font&gt;" style="text;html=1;points=[];align=left;verticalAlign=top;spacingTop=-4;fontSize=30;fontFamily=Verdana" vertex="1" parent="7026571954dc6520-1">
          <mxGeometry x="416" y="240" width="208" height="40" as="geometry" />
        </mxCell>
        <mxCell id="0ezgG9I7OVWT-BrZ1D5e-27" value="&lt;b&gt;&lt;font style=&quot;font-size: 15px;&quot;&gt;Spieler in dieser Lobby&lt;/font&gt;&lt;/b&gt;" style="swimlane;fontStyle=0;childLayout=stackLayout;horizontal=1;startSize=40;horizontalStack=0;resizeParent=1;resizeParentMax=0;resizeLast=0;collapsible=1;marginBottom=0;whiteSpace=wrap;html=1;" vertex="1" parent="7026571954dc6520-1">
          <mxGeometry x="252" y="340" width="537" height="190" as="geometry" />
        </mxCell>
        <mxCell id="0ezgG9I7OVWT-BrZ1D5e-28" value="Spieler1" style="text;strokeColor=none;fillColor=none;align=left;verticalAlign=middle;spacingLeft=4;spacingRight=4;overflow=hidden;points=[[0,0.5],[1,0.5]];portConstraint=eastwest;rotatable=0;whiteSpace=wrap;html=1;" vertex="1" parent="0ezgG9I7OVWT-BrZ1D5e-27">
          <mxGeometry y="40" width="537" height="30" as="geometry" />
        </mxCell>
        <mxCell id="0ezgG9I7OVWT-BrZ1D5e-29" value="Spieler2" style="text;strokeColor=none;fillColor=none;align=left;verticalAlign=middle;spacingLeft=4;spacingRight=4;overflow=hidden;points=[[0,0.5],[1,0.5]];portConstraint=eastwest;rotatable=0;whiteSpace=wrap;html=1;" vertex="1" parent="0ezgG9I7OVWT-BrZ1D5e-27">
          <mxGeometry y="70" width="537" height="30" as="geometry" />
        </mxCell>
        <mxCell id="0ezgG9I7OVWT-BrZ1D5e-30" value="&lt;font style=&quot;font-size: 15px;&quot;&gt;...&lt;/font&gt;" style="text;strokeColor=none;fillColor=none;align=left;verticalAlign=middle;spacingLeft=4;spacingRight=4;overflow=hidden;points=[[0,0.5],[1,0.5]];portConstraint=eastwest;rotatable=0;whiteSpace=wrap;html=1;" vertex="1" parent="0ezgG9I7OVWT-BrZ1D5e-27">
          <mxGeometry y="100" width="537" height="30" as="geometry" />
        </mxCell>
        <mxCell id="0ezgG9I7OVWT-BrZ1D5e-52" value="&lt;font style=&quot;font-size: 15px;&quot;&gt;...&lt;/font&gt;" style="text;strokeColor=none;fillColor=none;align=left;verticalAlign=middle;spacingLeft=4;spacingRight=4;overflow=hidden;points=[[0,0.5],[1,0.5]];portConstraint=eastwest;rotatable=0;whiteSpace=wrap;html=1;" vertex="1" parent="0ezgG9I7OVWT-BrZ1D5e-27">
          <mxGeometry y="130" width="537" height="30" as="geometry" />
        </mxCell>
        <mxCell id="0ezgG9I7OVWT-BrZ1D5e-51" value="&lt;font style=&quot;font-size: 15px;&quot;&gt;...&lt;/font&gt;" style="text;strokeColor=none;fillColor=none;align=left;verticalAlign=middle;spacingLeft=4;spacingRight=4;overflow=hidden;points=[[0,0.5],[1,0.5]];portConstraint=eastwest;rotatable=0;whiteSpace=wrap;html=1;" vertex="1" parent="0ezgG9I7OVWT-BrZ1D5e-27">
          <mxGeometry y="160" width="537" height="30" as="geometry" />
        </mxCell>
        <mxCell id="0ezgG9I7OVWT-BrZ1D5e-36" value="&lt;div align=&quot;left&quot;&gt;&amp;nbsp;&lt;font style=&quot;font-size: 13px; color: light-dark(rgb(0, 0, 0), rgb(102, 102, 102));&quot;&gt;Rolle ändern&lt;/font&gt;&lt;/div&gt;" style="rounded=0;whiteSpace=wrap;html=1;align=left;" vertex="1" parent="7026571954dc6520-1">
          <mxGeometry x="440" y="415" width="160" height="20" as="geometry" />
        </mxCell>
        <mxCell id="0ezgG9I7OVWT-BrZ1D5e-37" value="" style="html=1;verticalLabelPosition=bottom;labelBackgroundColor=#ffffff;verticalAlign=top;shadow=0;dashed=0;strokeWidth=2;shape=mxgraph.ios7.misc.down;strokeColor=#0080f0;" vertex="1" parent="7026571954dc6520-1">
          <mxGeometry x="580" y="422" width="12" height="6" as="geometry" />
        </mxCell>
        <mxCell id="0ezgG9I7OVWT-BrZ1D5e-43" value="&lt;div align=&quot;left&quot;&gt;&amp;nbsp;&lt;font style=&quot;font-size: 13px; color: light-dark(rgb(0, 0, 0), rgb(102, 102, 102));&quot;&gt;Rolle ändern&lt;/font&gt;&lt;/div&gt;" style="rounded=0;whiteSpace=wrap;html=1;align=left;" vertex="1" parent="7026571954dc6520-1">
          <mxGeometry x="440" y="445" width="160" height="20" as="geometry" />
        </mxCell>
        <mxCell id="0ezgG9I7OVWT-BrZ1D5e-44" value="" style="html=1;verticalLabelPosition=bottom;labelBackgroundColor=#ffffff;verticalAlign=top;shadow=0;dashed=0;strokeWidth=2;shape=mxgraph.ios7.misc.down;strokeColor=#0080f0;" vertex="1" parent="7026571954dc6520-1">
          <mxGeometry x="580" y="452" width="12" height="6" as="geometry" />
        </mxCell>
        <mxCell id="0ezgG9I7OVWT-BrZ1D5e-45" value="&lt;div align=&quot;left&quot;&gt;&amp;nbsp;&lt;font style=&quot;font-size: 13px; color: light-dark(rgb(0, 0, 0), rgb(102, 102, 102));&quot;&gt;ehem. Spieler zuweisen&lt;/font&gt;&lt;/div&gt;" style="rounded=0;whiteSpace=wrap;html=1;align=left;" vertex="1" parent="7026571954dc6520-1">
          <mxGeometry x="610" y="385" width="170" height="20" as="geometry" />
        </mxCell>
        <mxCell id="0ezgG9I7OVWT-BrZ1D5e-46" value="" style="html=1;verticalLabelPosition=bottom;labelBackgroundColor=#ffffff;verticalAlign=top;shadow=0;dashed=0;strokeWidth=2;shape=mxgraph.ios7.misc.down;strokeColor=#0080f0;" vertex="1" parent="7026571954dc6520-1">
          <mxGeometry x="760" y="392" width="12" height="6" as="geometry" />
        </mxCell>
        <mxCell id="0ezgG9I7OVWT-BrZ1D5e-47" value="&lt;div align=&quot;left&quot;&gt;&amp;nbsp;&lt;font style=&quot;font-size: 13px; color: light-dark(rgb(0, 0, 0), rgb(102, 102, 102));&quot;&gt;ehem. Spieler zuweisen&lt;/font&gt;&lt;/div&gt;" style="rounded=0;whiteSpace=wrap;html=1;align=left;" vertex="1" parent="7026571954dc6520-1">
          <mxGeometry x="610" y="415" width="170" height="20" as="geometry" />
        </mxCell>
        <mxCell id="0ezgG9I7OVWT-BrZ1D5e-48" value="" style="html=1;verticalLabelPosition=bottom;labelBackgroundColor=#ffffff;verticalAlign=top;shadow=0;dashed=0;strokeWidth=2;shape=mxgraph.ios7.misc.down;strokeColor=#0080f0;" vertex="1" parent="7026571954dc6520-1">
          <mxGeometry x="760" y="422" width="12" height="6" as="geometry" />
        </mxCell>
        <mxCell id="0ezgG9I7OVWT-BrZ1D5e-49" value="&lt;div align=&quot;left&quot;&gt;&amp;nbsp;&lt;font style=&quot;font-size: 13px; color: light-dark(rgb(0, 0, 0), rgb(102, 102, 102));&quot;&gt;ehem. Spieler zuweisen&lt;/font&gt;&lt;/div&gt;" style="rounded=0;whiteSpace=wrap;html=1;align=left;" vertex="1" parent="7026571954dc6520-1">
          <mxGeometry x="610" y="445" width="170" height="20" as="geometry" />
        </mxCell>
        <mxCell id="0ezgG9I7OVWT-BrZ1D5e-50" value="" style="html=1;verticalLabelPosition=bottom;labelBackgroundColor=#ffffff;verticalAlign=top;shadow=0;dashed=0;strokeWidth=2;shape=mxgraph.ios7.misc.down;strokeColor=#0080f0;" vertex="1" parent="7026571954dc6520-1">
          <mxGeometry x="760" y="452" width="12" height="6" as="geometry" />
        </mxCell>
        <mxCell id="0ezgG9I7OVWT-BrZ1D5e-31" value="&lt;div align=&quot;left&quot;&gt;&amp;nbsp;&lt;font style=&quot;font-size: 13px; color: light-dark(rgb(0, 0, 0), rgb(102, 102, 102));&quot;&gt;Rolle ändern&lt;/font&gt;&lt;/div&gt;" style="rounded=0;whiteSpace=wrap;html=1;align=left;" vertex="1" parent="7026571954dc6520-1">
          <mxGeometry x="440" y="385" width="160" height="20" as="geometry" />
        </mxCell>
        <mxCell id="0ezgG9I7OVWT-BrZ1D5e-35" value="" style="html=1;verticalLabelPosition=bottom;labelBackgroundColor=#ffffff;verticalAlign=top;shadow=0;dashed=0;strokeWidth=2;shape=mxgraph.ios7.misc.down;strokeColor=#0080f0;" vertex="1" parent="7026571954dc6520-1">
          <mxGeometry x="580" y="392" width="12" height="6" as="geometry" />
        </mxCell>
        <mxCell id="0ezgG9I7OVWT-BrZ1D5e-53" value="" style="shape=mxgraph.sysml.x;sketch=1;curveFitting=1;jiggle=2;" vertex="1" parent="7026571954dc6520-1">
          <mxGeometry x="789" y="240" width="19" height="20" as="geometry" />
        </mxCell>
        <mxCell id="0ezgG9I7OVWT-BrZ1D5e-54" value="&lt;font style=&quot;font-size: 20px;&quot;&gt;Änderungen speichern&lt;/font&gt;" style="rounded=1;whiteSpace=wrap;html=1;fillColor=light-dark(#FFFFFF,#1A1A1A);" vertex="1" parent="7026571954dc6520-1">
          <mxGeometry x="325" y="610" width="390" height="50" as="geometry" />
        </mxCell>
      </root>
    </mxGraphModel>
  </diagram>
</mxfile>
